<svg version="1.1" xmlns="http://www.w3.org/2000/svg" viewBox="0 0 500.6 320.5" enable-background="new 0 0 500.6 320.5"><style type="text/css">.st0{fill:#006272;} .st1{fill:#00A693;} .st2{fill:#FF6900;} .st3{fill:#80D2C9;} .st4{fill:url(#SVGID_1_);} .st5{fill:url(#SVGID_2_);} .st6{fill:url(#SVGID_3_);} .st7{fill:url(#SVGID_4_);} .st8{fill:url(#SVGID_5_);} .st9{fill:url(#SVGID_6_);} .st10{fill:url(#SVGID_7_);} .st11{fill:url(#SVGID_8_);} .st12{fill:url(#SVGID_9_);} .st13{fill:url(#SVGID_10_);} .st14{fill:url(#SVGID_11_);} .st15{fill:url(#SVGID_12_);} .st16{fill:url(#SVGID_13_);} .st17{fill:url(#SVGID_14_);} .st18{fill:url(#SVGID_15_);} .st19{fill:url(#SVGID_16_);} .st20{fill:url(#SVGID_17_);} .st21{fill:url(#SVGID_18_);} .st22{fill:url(#SVGID_19_);} .st23{fill:url(#SVGID_20_);} .st24{fill:url(#SVGID_21_);} .st25{fill:url(#SVGID_22_);} .st26{fill:url(#SVGID_23_);} .st27{fill:url(#SVGID_24_);} .st28{fill:#ED8B00;} .st29{fill:#253746;} .st30{fill:#0D8672;}</style><path class="st0" d="M255.1 0h13.6v13.6h-13.6z"/><path class="st1" d="M255.1 42.8h13.6v13.6h-13.6zM255.1 21.4h13.6v13.6h-13.6z"/><path class="st2" d="M276.5 21.4h13.6v13.6h-13.6z"/><path class="st3" d="M383.1 182.9h13.6v13.6h-13.6zM361.8 182.9h13.6v13.6h-13.6zM404.4 182.9h13.6v13.6h-13.6z"/><linearGradient id="SVGID_1_" gradientUnits="userSpaceOnUse" x1="325.913" y1="227.794" x2="325.913" y2="94.968"><stop offset="0" stop-color="#fff"/><stop offset="1" stop-color="#ED8B00"/></linearGradient><path class="st4" d="M319.1 149.7h13.6v13.6h-13.6z"/><linearGradient id="SVGID_2_" gradientUnits="userSpaceOnUse" x1="347.239" y1="238.593" x2="347.239" y2="92.809"><stop offset="0" stop-color="#fff"/><stop offset="1" stop-color="#006272"/></linearGradient><path class="st5" d="M340.4 149.7h13.6v13.6h-13.6z"/><linearGradient id="SVGID_3_" gradientUnits="userSpaceOnUse" x1="281.977" y1="92.338" x2="388.143" y2="92.338"><stop offset="0" stop-color="#fff" stop-opacity="0"/><stop offset=".04" stop-color="#FDF3E4" stop-opacity=".074"/><stop offset=".149" stop-color="#F8D49F" stop-opacity=".272"/><stop offset=".251" stop-color="#F4BA67" stop-opacity=".459"/><stop offset=".345" stop-color="#F1A53A" stop-opacity=".631"/><stop offset=".429" stop-color="#EF971A" stop-opacity=".784"/><stop offset=".499" stop-color="#ED8E07" stop-opacity=".912"/><stop offset=".548" stop-color="#ED8B00"/><stop offset="1" stop-color="#ED8B00"/></linearGradient><path class="st6" d="M276.5 85.5h13.6v13.6h-13.6z"/><linearGradient id="SVGID_4_" gradientUnits="userSpaceOnUse" x1="281.977" y1="113.722" x2="388.143" y2="113.722"><stop offset="0" stop-color="#fff" stop-opacity="0"/><stop offset=".04" stop-color="#FDF3E4" stop-opacity=".074"/><stop offset=".149" stop-color="#F8D49F" stop-opacity=".272"/><stop offset=".251" stop-color="#F4BA67" stop-opacity=".459"/><stop offset=".345" stop-color="#F1A53A" stop-opacity=".631"/><stop offset=".429" stop-color="#EF971A" stop-opacity=".784"/><stop offset=".499" stop-color="#ED8E07" stop-opacity=".912"/><stop offset=".548" stop-color="#ED8B00"/><stop offset="1" stop-color="#ED8B00"/></linearGradient><path class="st7" d="M276.5 106.9h13.6v13.6h-13.6z"/><linearGradient id="SVGID_5_" gradientUnits="userSpaceOnUse" x1="281.977" y1="92.338" x2="388.127" y2="92.338"><stop offset="0" stop-color="#fff" stop-opacity="0"/><stop offset=".04" stop-color="#FDF3E4" stop-opacity=".074"/><stop offset=".149" stop-color="#F8D49F" stop-opacity=".272"/><stop offset=".251" stop-color="#F4BA67" stop-opacity=".459"/><stop offset=".345" stop-color="#F1A53A" stop-opacity=".631"/><stop offset=".429" stop-color="#EF971A" stop-opacity=".784"/><stop offset=".499" stop-color="#ED8E07" stop-opacity=".912"/><stop offset=".548" stop-color="#ED8B00"/><stop offset="1" stop-color="#ED8B00"/></linearGradient><path class="st8" d="M297.8 85.5h13.6v13.6h-13.6z"/><linearGradient id="SVGID_6_" gradientUnits="userSpaceOnUse" x1="281.977" y1="113.722" x2="388.127" y2="113.722"><stop offset="0" stop-color="#fff" stop-opacity="0"/><stop offset=".04" stop-color="#FDF3E4" stop-opacity=".074"/><stop offset=".149" stop-color="#F8D49F" stop-opacity=".272"/><stop offset=".251" stop-color="#F4BA67" stop-opacity=".459"/><stop offset=".345" stop-color="#F1A53A" stop-opacity=".631"/><stop offset=".429" stop-color="#EF971A" stop-opacity=".784"/><stop offset=".499" stop-color="#ED8E07" stop-opacity=".912"/><stop offset=".548" stop-color="#ED8B00"/><stop offset="1" stop-color="#ED8B00"/></linearGradient><path class="st9" d="M297.8 106.9h13.6v13.6h-13.6z"/><linearGradient id="SVGID_7_" gradientUnits="userSpaceOnUse" x1="281.977" y1="135.106" x2="388.127" y2="135.106"><stop offset="0" stop-color="#fff" stop-opacity="0"/><stop offset=".04" stop-color="#FDF3E4" stop-opacity=".074"/><stop offset=".149" stop-color="#F8D49F" stop-opacity=".272"/><stop offset=".251" stop-color="#F4BA67" stop-opacity=".459"/><stop offset=".345" stop-color="#F1A53A" stop-opacity=".631"/><stop offset=".429" stop-color="#EF971A" stop-opacity=".784"/><stop offset=".499" stop-color="#ED8E07" stop-opacity=".912"/><stop offset=".548" stop-color="#ED8B00"/><stop offset="1" stop-color="#ED8B00"/></linearGradient><path class="st10" d="M297.8 128.3h13.6v13.6h-13.6z"/><linearGradient id="SVGID_8_" gradientUnits="userSpaceOnUse" x1="281.977" y1="156.489" x2="388.127" y2="156.489"><stop offset="0" stop-color="#fff" stop-opacity="0"/><stop offset=".04" stop-color="#FDF3E4" stop-opacity=".074"/><stop offset=".149" stop-color="#F8D49F" stop-opacity=".272"/><stop offset=".251" stop-color="#F4BA67" stop-opacity=".459"/><stop offset=".345" stop-color="#F1A53A" stop-opacity=".631"/><stop offset=".429" stop-color="#EF971A" stop-opacity=".784"/><stop offset=".499" stop-color="#ED8E07" stop-opacity=".912"/><stop offset=".548" stop-color="#ED8B00"/><stop offset="1" stop-color="#ED8B00"/></linearGradient><path class="st11" d="M297.8 149.7h13.6v13.6h-13.6z"/><linearGradient id="SVGID_9_" gradientUnits="userSpaceOnUse" x1="281.971" y1="70.954" x2="388.137" y2="70.954"><stop offset="0" stop-color="#fff" stop-opacity="0"/><stop offset=".04" stop-color="#FDF3E4" stop-opacity=".074"/><stop offset=".149" stop-color="#F8D49F" stop-opacity=".272"/><stop offset=".251" stop-color="#F4BA67" stop-opacity=".459"/><stop offset=".345" stop-color="#F1A53A" stop-opacity=".631"/><stop offset=".429" stop-color="#EF971A" stop-opacity=".784"/><stop offset=".499" stop-color="#ED8E07" stop-opacity=".912"/><stop offset=".548" stop-color="#ED8B00"/><stop offset="1" stop-color="#ED8B00"/></linearGradient><path class="st12" d="M319.1 64.1h13.6v13.6h-13.6z"/><linearGradient id="SVGID_10_" gradientUnits="userSpaceOnUse" x1="281.977" y1="70.954" x2="388.127" y2="70.954"><stop offset="0" stop-color="#fff" stop-opacity="0"/><stop offset=".04" stop-color="#FDF3E4" stop-opacity=".074"/><stop offset=".149" stop-color="#F8D49F" stop-opacity=".272"/><stop offset=".251" stop-color="#F4BA67" stop-opacity=".459"/><stop offset=".345" stop-color="#F1A53A" stop-opacity=".631"/><stop offset=".429" stop-color="#EF971A" stop-opacity=".784"/><stop offset=".499" stop-color="#ED8E07" stop-opacity=".912"/><stop offset=".548" stop-color="#ED8B00"/><stop offset="1" stop-color="#ED8B00"/></linearGradient><path class="st13" d="M297.8 64.1h13.6v13.6h-13.6z"/><linearGradient id="SVGID_11_" gradientUnits="userSpaceOnUse" x1="325.913" y1="227.822" x2="325.913" y2="94.962"><stop offset="0" stop-color="#fff"/><stop offset="1" stop-color="#ED8B00"/></linearGradient><path class="st14" d="M319.1 85.5h13.6v13.6h-13.6z"/><linearGradient id="SVGID_12_" gradientUnits="userSpaceOnUse" x1="325.913" y1="227.79" x2="325.913" y2="94.963"><stop offset="0" stop-color="#fff"/><stop offset="1" stop-color="#ED8B00"/></linearGradient><path class="st15" d="M319.1 106.9h13.6v13.6h-13.6z"/><linearGradient id="SVGID_13_" gradientUnits="userSpaceOnUse" x1="325.913" y1="227.792" x2="325.913" y2="94.966"><stop offset="0" stop-color="#fff"/><stop offset="1" stop-color="#ED8B00"/></linearGradient><path class="st16" d="M319.1 128.3h13.6v13.6h-13.6z"/><linearGradient id="SVGID_14_" gradientUnits="userSpaceOnUse" x1="281.971" y1="70.954" x2="388.131" y2="70.954"><stop offset="0" stop-color="#fff"/><stop offset="1" stop-color="#00A693"/></linearGradient><path class="st17" d="M340.4 64.1h13.6v13.6h-13.6z"/><linearGradient id="SVGID_15_" gradientUnits="userSpaceOnUse" x1="281.971" y1="92.338" x2="388.131" y2="92.338"><stop offset="0" stop-color="#fff"/><stop offset="1" stop-color="#00A693"/></linearGradient><path class="st18" d="M340.4 85.5h13.6v13.6h-13.6z"/><linearGradient id="SVGID_16_" gradientUnits="userSpaceOnUse" x1="347.239" y1="238.588" x2="347.239" y2="92.804"><stop offset="0" stop-color="#fff"/><stop offset="1" stop-color="#006272"/></linearGradient><path class="st19" d="M340.4 106.9h13.6v13.6h-13.6z"/><linearGradient id="SVGID_17_" gradientUnits="userSpaceOnUse" x1="347.239" y1="238.591" x2="347.239" y2="92.806"><stop offset="0" stop-color="#fff"/><stop offset="1" stop-color="#006272"/></linearGradient><path class="st20" d="M340.4 128.3h13.6v13.6h-13.6z"/><linearGradient id="SVGID_18_" gradientUnits="userSpaceOnUse" x1="281.982" y1="92.338" x2="388.126" y2="92.338"><stop offset="0" stop-color="#fff"/><stop offset="1" stop-color="#00A693"/></linearGradient><path class="st21" d="M361.8 85.5h13.6v13.6h-13.6z"/><linearGradient id="SVGID_19_" gradientUnits="userSpaceOnUse" x1="368.564" y1="238.588" x2="368.564" y2="92.804"><stop offset="0" stop-color="#fff"/><stop offset="1" stop-color="#006272"/></linearGradient><path class="st22" d="M361.8 106.9h13.6v13.6h-13.6z"/><linearGradient id="SVGID_20_" gradientUnits="userSpaceOnUse" x1="368.564" y1="238.591" x2="368.564" y2="92.806"><stop offset="0" stop-color="#fff"/><stop offset="1" stop-color="#006272"/></linearGradient><path class="st23" d="M361.8 128.3h13.6v13.6h-13.6z"/><linearGradient id="SVGID_21_" gradientUnits="userSpaceOnUse" x1="495.347" y1="92.34" x2="272.612" y2="92.34"><stop offset="0" stop-color="#fff"/><stop offset="1" stop-color="#00A693"/></linearGradient><path class="st24" d="M383.1 85.5h13.6v13.6h-13.6z"/><linearGradient id="SVGID_22_" gradientUnits="userSpaceOnUse" x1="495.347" y1="113.722" x2="272.612" y2="113.722"><stop offset="0" stop-color="#fff"/><stop offset="1" stop-color="#00A693"/></linearGradient><path class="st25" d="M383.1 106.9h13.6v13.6h-13.6z"/><linearGradient id="SVGID_23_" gradientUnits="userSpaceOnUse" x1="495.347" y1="135.106" x2="272.612" y2="135.106"><stop offset="0" stop-color="#fff"/><stop offset="1" stop-color="#00A693"/></linearGradient><path class="st26" d="M383.1 128.3h13.6v13.6h-13.6z"/><linearGradient id="SVGID_24_" gradientUnits="userSpaceOnUse" x1="495.353" y1="113.722" x2="272.602" y2="113.722"><stop offset="0" stop-color="#fff"/><stop offset="1" stop-color="#00A693"/></linearGradient><path class="st27" d="M404.4 106.9h13.6v13.6h-13.6z"/><path class="st28" d="M404.4 163.8h13.6v13.6h-13.6z"/><path class="st29" d="M62.1 38.3h21.9l61.3 142.4h-29l-13.3-32.6h-61.6l-12.9 32.6h-28.4l62-142.4zm32.2 88.1l-22-58-22.3 58h44.3zM180.9 38.3h21.9l61.3 142.4h-29l-13.1-32.6h-61.7l-12.9 32.6h-28.4l61.9-142.4zm32.2 88.1l-21.9-57.9-22.3 57.9h44.2zM431.6 61.2h-43.7v-22.9h112.6v22.9h-43.6v119.5h-25.3v-119.5zM359.6 71.6c-10.5-11.1-20.1-14.1-30-14.1-29.4 0-48.9 22.5-48.9 50.9 0 30.4 19.5 52.9 48.9 52.9 11.5 0 22.5-5.2 32-17.3l20.9 14.9c-12.9 17.7-32.2 25.3-53.1 25.3-43.8 0-75.2-29.8-75.2-74.2 0-45.7 31.4-75.4 75.2-75.4 19.3 0 35.8 6.2 49.9 22.5l-19.7 14.5z"/><path class="st30" d="M24.4 251.2v-1.8c1.3-.4 3-.6 4.6-.8l-2.6-6.9h-16.7l-2.5 6.9c1.6.1 3.2.4 4.6.8v1.8h-11.8v-1.8c1-.3 2.5-.6 3.6-.7l12.8-33.8h3.8l12.7 33.8c1.1.1 2.6.4 3.6.7v1.8h-12.1zm-4.7-27.6c-.6-1.8-1.1-3.4-1.6-5.2h-.1c-.5 1.7-1 3.4-1.6 5.1l-5.7 15.5h14.7l-5.7-15.4zM74.5 233.8c0-4.3-1-7.1-5.2-7.1-4.4 0-8.5 4.4-8.5 11.8v10.1c1.6.1 3.2.4 4.6.8v1.8h-7.9v-17.5c0-3.8-.8-7.1-5.2-7.1-4.7 0-8.5 4.8-8.5 11.8v10.1c1.6.1 3.2.4 4.6.8v1.8h-12.7v-1.8c1.4-.4 3.1-.6 4.7-.8v-21.4c-1.3-.2-3.1-.4-4.7-.5v-1.8c2.2-.3 5.6-.5 8.1-.4 0 1.8-.2 4.5-.5 6.2l.1.1c1.5-4.1 5.1-6.7 9.6-6.7 6.4 0 7.5 4.7 7.5 6.6.9-2.5 3.8-6.6 9.4-6.6 5 0 7.9 2.6 7.9 8.7v16c1.6.1 3.2.4 4.6.8v1.8h-8v-17.5zM105.4 236.6h-18.2c-.3 8.7 3 12.2 9.2 12.2 2.8 0 5.8-.8 7.8-1.7l.3 3c-2.4 1-5.3 1.6-8.7 1.6-8 0-12.2-4.3-12.2-13.7 0-8 4.3-13.9 11.6-13.9s10.3 5 10.3 10.8c0 .3 0 .9-.1 1.7zm-10.4-10c-4 0-6.8 2.9-7.5 7.3h14.4c.1-4.3-2.6-7.3-6.9-7.3zM125.8 227.3c-6.6-1-9.5 3.9-9.5 13.2v8.1c1.6.1 3.3.4 4.7.8v1.8h-12.8v-1.8c1.4-.4 3.1-.6 4.7-.8v-21.4c-1.3-.2-3.1-.4-4.7-.5v-1.8c2.2-.3 5.6-.5 8.1-.4 0 1.9-.2 4.6-.7 7l.1.1c1-4 3.8-8.2 10.2-7.5l-.1 3.2zM129.4 251.2v-1.8c1.4-.4 3.1-.6 4.7-.8v-21.4c-1.3-.2-3.1-.4-4.7-.5v-1.8c2.2-.3 5.6-.5 8.1-.4v24.2c1.6.1 3.2.4 4.6.8v1.8h-12.7zm6.4-31.9c-1.3 0-2.4-1.1-2.4-2.4 0-1.3 1.1-2.4 2.4-2.4 1.3 0 2.4 1 2.4 2.4s-1 2.4-2.4 2.4zM156.3 251.6c-5.7 0-11.6-2.4-11.6-12.8 0-8.9 4.4-14.7 13-14.7 2.2 0 4.6.3 6.5.9v7.2h-2c-.4-1.7-.6-3.4-.8-5-1.1-.3-2.6-.5-4.1-.5-6 0-9 4.5-9 11.3 0 5.8 1.8 10.6 8.7 10.6 2.5 0 5.3-.6 7.2-1.6l.3 3c-1.8.7-4.7 1.6-8.2 1.6zM185.6 251.2c0-2.2.1-4.3.3-5.9l-.1-.1c-1.3 3.5-4.8 6.4-9.5 6.4-4.1 0-7.3-2.1-7.3-6.4 0-5.4 5.7-9.3 16.5-9.4v-2.4c0-4.4-1.5-6.8-6.3-6.8-1.8 0-3.9.2-5.8.8-.1 1.6-.4 3.2-.7 5h-2v-7.1c2.4-.9 5.5-1.5 9.1-1.5 7.1 0 9.1 3.7 9.1 8.7v15.8c1.3.2 3.1.4 4.6.5v1.8c-2.1.5-5.5.7-7.9.6zm0-12.6c-10.6 0-13 3.3-13 6 0 2.6 1.8 4.3 4.6 4.3 5.1 0 8.4-5 8.4-10v-.3zM216.5 233.8c0-4.5-1.2-7.1-5.4-7.1-5.1 0-8.6 5-8.6 11.7v10.2c1.6.1 3.2.4 4.6.8v1.8h-12.7v-1.8c1.4-.4 3.1-.6 4.7-.8v-21.4c-1.3-.2-3.1-.4-4.7-.5v-1.8c2.2-.3 5.6-.5 8.1-.4 0 1.8-.2 4.5-.5 6.2l.1.1c1.5-4.1 5-6.7 9.7-6.7 6.2 0 8.1 3.8 8.1 8.6v16.1c1.6.1 3.2.4 4.6.8v1.8h-8v-17.6zM260.6 251.2v-1.8c1.3-.4 3-.6 4.6-.8l-2.6-6.9h-16.6l-2.5 6.9c1.6.1 3.2.4 4.6.8v1.8h-11.8v-1.8c1-.3 2.5-.6 3.6-.7l12.8-33.8h3.8l12.7 33.8c1.1.1 2.6.4 3.6.7v1.8h-12.2zm-4.7-27.6c-.6-1.8-1.1-3.4-1.6-5.2h-.1c-.5 1.7-1 3.4-1.6 5.1l-5.7 15.5h14.7l-5.7-15.4zM281.4 251.7c-2 0-4.3-.2-5.8-.6v-7.4h1.9c.4 1.6.6 3.2.8 4.8 1 .2 2.3.3 3.5.3 4.2 0 7.1-1.9 7.1-5 0-6.8-13.8-2.6-13.8-12.2 0-4.4 3.7-7.6 10.2-7.6 1.8 0 3.8.3 5.6.7v7.1h-1.9c-.3-1.6-.6-3.2-.8-4.7-1-.2-2.2-.4-3.3-.4-4.3 0-6.4 1.8-6.4 4.6 0 7 13.8 2.9 13.8 12.1.1 4.5-4 8.3-10.9 8.3zM302.5 251.7c-2 0-4.3-.2-5.8-.6v-7.4h1.9c.4 1.6.6 3.2.8 4.8 1 .2 2.3.3 3.5.3 4.2 0 7.1-1.9 7.1-5 0-6.8-13.8-2.6-13.8-12.2 0-4.4 3.7-7.6 10.2-7.6 1.8 0 3.8.3 5.6.7v7.1h-1.9c-.3-1.6-.6-3.2-.8-4.7-1-.2-2.2-.4-3.3-.4-4.3 0-6.4 1.8-6.4 4.6 0 7 13.8 2.9 13.8 12.1 0 4.5-4 8.3-10.9 8.3zM327.6 251.7c-7.1 0-11.6-4.4-11.6-13.7 0-7.5 4.5-13.9 12.5-13.9 6.2 0 11.7 3.4 11.7 13.4 0 7.8-4.8 14.2-12.6 14.2zm.5-24.9c-4.4 0-8.6 3.4-8.6 10.9 0 7.1 3.1 11.2 8.7 11.2 4.4 0 8.5-3.4 8.5-11.3 0-6.7-3-10.8-8.6-10.8zM355.2 251.6c-5.7 0-11.6-2.4-11.6-12.8 0-8.9 4.4-14.7 13-14.7 2.2 0 4.6.3 6.5.9v7.2h-2c-.4-1.7-.6-3.4-.8-5-1.1-.3-2.6-.5-4.1-.5-6 0-9.1 4.5-9.1 11.3 0 5.8 1.8 10.6 8.7 10.6 2.5 0 5.3-.6 7.2-1.6l.3 3c-1.8.7-4.7 1.6-8.1 1.6zM367.5 251.2v-1.8c1.4-.4 3.1-.6 4.7-.8v-21.4c-1.3-.2-3.1-.4-4.7-.5v-1.8c2.2-.3 5.6-.5 8.1-.4v24.2c1.6.1 3.2.4 4.6.8v1.8h-12.7zm6.4-31.9c-1.3 0-2.4-1.1-2.4-2.4 0-1.3 1.1-2.4 2.4-2.4 1.3 0 2.4 1 2.4 2.4s-1 2.4-2.4 2.4zM399.7 251.2c0-2.2.1-4.3.3-5.9l-.1-.1c-1.3 3.5-4.8 6.4-9.5 6.4-4.1 0-7.3-2.1-7.3-6.4 0-5.4 5.7-9.3 16.5-9.4v-2.4c0-4.4-1.5-6.8-6.3-6.8-1.8 0-3.9.2-5.8.8-.1 1.6-.4 3.2-.7 5h-2v-7.1c2.4-.9 5.5-1.5 9.1-1.5 7.1 0 9.1 3.7 9.1 8.7v15.8c1.3.2 3.1.4 4.6.5v1.8c-2.1.5-5.5.7-7.9.6zm-.1-12.6c-10.6 0-13 3.3-13 6 0 2.6 1.8 4.3 4.6 4.3 5.1 0 8.4-5 8.4-10v-.3zM419.5 251.6c-5.2 0-6.7-2.4-6.7-7.8v-16.7h-6.1v-2.7h6.1v-9l3.4-.9v10h8.2v2.7h-8.2v15c0 5.1.9 6.4 4.3 6.4 1.4 0 2.8-.2 4-.5v3c-1.5.3-3.3.5-5 .5zM427.3 251.2v-1.8c1.4-.4 3.1-.6 4.7-.8v-21.4c-1.3-.2-3.1-.4-4.7-.5v-1.8c2.2-.3 5.6-.5 8.1-.4v24.2c1.6.1 3.2.4 4.6.8v1.8h-12.7zm6.4-31.9c-1.3 0-2.4-1.1-2.4-2.4 0-1.3 1.1-2.4 2.4-2.4 1.3 0 2.4 1 2.4 2.4s-1 2.4-2.4 2.4zM453.8 251.7c-7.1 0-11.6-4.4-11.6-13.7 0-7.5 4.5-13.9 12.5-13.9 6.2 0 11.7 3.4 11.7 13.4 0 7.8-4.7 14.2-12.6 14.2zm.5-24.9c-4.4 0-8.6 3.4-8.6 10.9 0 7.1 3.1 11.2 8.7 11.2 4.4 0 8.5-3.4 8.5-11.3 0-6.7-2.9-10.8-8.6-10.8zM489.6 233.8c0-4.5-1.2-7.1-5.4-7.1-5.1 0-8.6 5-8.6 11.7v10.2c1.6.1 3.2.4 4.6.8v1.8h-12.7v-1.8c1.4-.4 3.1-.6 4.7-.8v-21.4c-1.3-.2-3.1-.4-4.7-.5v-1.8c2.2-.3 5.6-.5 8.1-.4 0 1.8-.2 4.5-.5 6.2l.1.1c1.5-4.1 5-6.7 9.7-6.7 6.2 0 8.1 3.8 8.1 8.6v16.1c1.6.1 3.2.4 4.6.8v1.8h-8v-17.6zM12.1 307.1c-6.2 0-9.4-3.3-9.4-9.4 0-10.3 6.2-18.2 15.1-18.2 6.6 0 9.6 3.9 9.6 9.5 0 11.1-7.5 18.1-15.3 18.1zm5.3-24.9c-6.6 0-11.1 7-11.1 14.8 0 4.7 1.9 7.2 6.5 7.2 5.7 0 11.1-5.8 11.1-14.9 0-4.5-2.1-7.1-6.5-7.1zM51.9 270.4c-1.3-.4-3-.5-4.3-.5-4.4 0-6.9 2.5-7.9 8.1l-.3 1.9h8.1l-.5 2.7h-8.1l-4.9 25.7c-1.7 8.9-5.7 12.3-12.1 12.3-1.6 0-3.1-.2-4.6-.5l.9-3c1.5.4 3 .6 4.3.6 4.4 0 6.8-2.3 8.1-9.3l5-25.9h-6l.6-2.7h6l.3-1.8c1.3-7.4 5.3-11 11.8-11 1.6 0 3 .2 4.5.5l-.9 2.9zM88.4 278.8h-2.2c0-1.9.1-3.7.2-5.1-2-.6-3.9-.8-5.8-.8-11 0-15.9 10.8-15.9 21.4 0 5.7 2.3 9.8 10.1 9.8 3.2 0 6.4-.8 9.1-2l-.1 3.1c-3 1.2-6.5 2-10.1 2-10 0-12.9-5.6-12.9-12.3 0-13 7.2-24.8 20.6-24.8 3.1 0 5.9.4 8.3 1.1l-1.3 7.6zM115.7 306.3c-2.2.3-5.5.5-7.9.4l3.3-17.3c.9-4.8 0-7.1-2.9-7.1-5.9 0-11.9 12-13.2 19l-1 5.4h-3.3l6.9-36.6c-1.2-.2-3-.4-4.5-.5l.4-1.8c2.2-.3 5.5-.5 8-.4l-2.5 13.4c-.4 1.9-.9 4.4-3.1 11.2h.1c2.6-6.4 7.2-12.7 13.1-12.7 4.8 0 6.6 3.4 5.5 9.2l-3 15.3c1.2.2 2.9.4 4.5.5l-.4 2zM123.9 294.3c-.2.9-.3 2.6-.3 3.8 0 5 1.7 6.1 6.4 6.1 2.5 0 5.2-.6 7.4-1.6v2.9c-2.3 1-5.2 1.6-8.7 1.6-5.7 0-8.7-2.2-8.7-8.4 0-9.8 5.1-19.2 14.4-19.2 5 0 7.3 2.6 7.3 5.8-.1 5.2-5.7 8.5-17.8 9zm10-12.2c-4.8 0-8.1 4.1-9.5 9.3 9.7-.4 13.6-2.4 13.6-5.8.1-2.3-1.6-3.5-4.1-3.5zM186.5 306.3c-2.2.3-5.5.5-7.9.4l3.3-17.3c.9-4.9 0-7.1-2.7-7.1-5 0-11.2 10.2-12.9 19l-1.1 5.4h-3.3l3.3-17.3c.9-4.9.1-7.1-2.7-7.1-5 0-11.2 10.4-12.9 19l-1 5.4h-3.3l4.6-24c-1.2-.2-3-.4-4.5-.5l.4-1.8c2.2-.3 5.6-.5 8.1-.4-.9 4.1-2 8.1-3.4 12.1l.1.1c2.5-6.3 7.1-12.7 12.9-12.7 3.6 0 5.3 2 5.3 5.2 0 2.1-.6 4-1.7 7.4h.1c2.5-6.3 7.1-12.7 12.9-12.7 4.6 0 6.4 3.4 5.3 9.2l-3 15.3c1.2.2 2.9.4 4.4.5l-.3 1.9zM199.7 306.3c-2.2.3-5.5.5-8 .4l4.5-24c-1.2-.2-2.9-.4-4.4-.5l.4-1.8c2.2-.3 5.5-.5 8-.4l-4.6 24c1.2.2 2.9.4 4.4.5l-.3 1.8zm.1-31.5c-1.3 0-2.2-1.1-2.2-2.2 0-1.6 1.2-2.7 2.6-2.7 1.3 0 2.2 1 2.2 2.1 0 1.7-1.3 2.8-2.6 2.8zM221.3 287h-1.9c0-1.7.1-3.2.2-4.7-.7-.1-1.5-.2-2.2-.2-4 0-6.2 2-6.2 4.7 0 5 9.3 5.6 9.3 11.8 0 4.5-4 8.5-11.1 8.5-1.8 0-3.2-.1-4.6-.3l1.4-7.5h1.9c0 1.6-.1 3.3-.2 4.7.6.1 1.5.2 2.3.2 4 0 6.9-1.7 6.9-5 0-4.8-9.3-5.3-9.3-12 0-4.3 3.5-7.8 10-7.8 2 0 3.4.2 4.8.4l-1.3 7.2zM243.6 282.6h-8l-2.9 15.4c-.9 4.8-.3 6.1 2.7 6.1 1.6 0 2.9-.2 4-.4l-.1 3c-1.5.3-3.2.5-4.6.5-5.3 0-6.6-2.5-5.5-8.3l3.1-16.1h-6l.5-2.7h6l1.7-9 3.5-.9-1.9 9.9h8l-.5 2.5zM264.6 282.8c-6-2.2-11.7 11.3-12.9 17.6l-1.1 6.2h-3.3l4.5-23.9.1-.2c-1.2-.2-3-.4-4.5-.5l.4-1.8c2.2-.3 5.6-.5 8-.4-.5 2.5-1.3 5.7-3.1 11.1l.1.1c3.2-7.1 6.4-12.9 12.5-11.6l-.7 3.4zM273 315.9c-3 2.9-6.2 4.7-9.2 4.7-1.3 0-2.6-.1-3.6-.4l.6-3.2c1 .4 2.2.5 3.4.5 2 0 4.5-1.4 6.5-3.7 2.4-2.7 3.5-5.4 3.5-9.7 0-5.9-1.1-13.6-3-21.4-1.2-.2-3-.4-4.5-.5l.3-1.8c2.2-.3 5-.5 7.3-.4 1.9 7.8 3.1 16.7 3.1 22.4 0 1.2-.2 2.7-.5 4.1h.1c4.8-8.1 8.7-16.2 13.5-27.5l3.1 1c-6.6 15.4-13.6 29-20.6 35.9zM334.5 278.5h-2.1c.1-2.3.1-4 .2-5.4h-8.7l-5.9 31c1.6.1 3.1.4 4.5.8l-.4 1.8h-12.5l.3-1.8c1.5-.4 3.1-.6 4.7-.8l5.9-31h-8.7c-.4 1.3-1 3.1-1.8 5.4h-2.2l1.6-8.2h26.6l-1.5 8.2zM335.1 294.3c-.2.9-.3 2.6-.3 3.8 0 5 1.7 6.1 6.4 6.1 2.5 0 5.2-.6 7.4-1.6v2.9c-2.3 1-5.2 1.6-8.7 1.6-5.7 0-8.7-2.2-8.7-8.4 0-9.8 5.1-19.2 14.4-19.2 5 0 7.3 2.6 7.3 5.8 0 5.2-5.6 8.5-17.8 9zm10.1-12.2c-4.8 0-8.1 4.1-9.5 9.3 9.7-.4 13.6-2.4 13.6-5.8 0-2.3-1.6-3.5-4.1-3.5zM374.8 303.9c1.2.2 3 .4 4.5.5l-.3 1.8c-2.2.3-5.5.5-8.1.4.5-2.5 1.7-6.6 3.5-12.6l-.1-.1c-1.7 4.2-6 13.1-13.4 13.1-3.7 0-5.8-2.4-5.8-8 0-9.7 4.8-19.6 16.5-19.6 2.9 0 5.4.3 7.6.8l-4.4 23.7zm-3.7-21.7c-9.2 0-12.5 9-12.5 16.4 0 4.1 1.3 5.7 3.2 5.7 6 0 12-12.1 13.3-19.1l.5-2.4c-1.3-.3-2.7-.6-4.5-.6zM403.2 287.7h-1.9c0-1.7.1-3.4.2-5-1-.3-2.3-.6-3.3-.6-7.4 0-11.1 8.5-11.1 15.5 0 3.1.9 6.4 6.2 6.4 2.4 0 5-.6 6.9-1.6l-.1 3c-2 .8-4.7 1.5-7.6 1.5-6.9 0-9-3.8-9-8.6 0-10.2 5.7-18.8 15.1-18.8 2 0 4.3.4 6 .9l-1.4 7.3zM430.8 306.3c-2.2.3-5.5.5-7.9.4l3.3-17.3c.9-4.8 0-7.1-2.9-7.1-5.9 0-11.9 12-13.2 19l-1 5.4h-3.3l6.9-36.6c-1.2-.2-3-.4-4.5-.5l.4-1.8c2.2-.3 5.5-.5 8-.4l-2.6 13.5c-.4 1.9-.9 4.4-3.1 11.2l.1.1c2.6-6.4 7.2-12.7 13.1-12.7 4.8 0 6.6 3.4 5.5 9.2l-3 15.3c1.2.2 2.9.4 4.5.5l-.3 1.8zM438.9 294.3c-.2.9-.3 2.6-.3 3.8 0 5 1.7 6.1 6.4 6.1 2.5 0 5.2-.6 7.4-1.6v2.9c-2.3 1-5.2 1.6-8.7 1.6-5.7 0-8.7-2.2-8.7-8.4 0-9.8 5.1-19.2 14.4-19.2 5 0 7.3 2.6 7.3 5.8-.1 5.2-5.7 8.5-17.8 9zm10-12.2c-4.8 0-8.1 4.1-9.5 9.3 9.7-.4 13.6-2.4 13.6-5.8.1-2.3-1.6-3.5-4.1-3.5zM478 282.8c-6-2.2-11.7 11.3-12.9 17.6l-1.1 6.2h-3.3l4.5-23.9.1-.2c-1.2-.2-3-.4-4.5-.5l.4-1.8c2.2-.3 5.6-.5 8-.4-.5 2.5-1.3 5.7-3.1 11.1l.1.1c3.2-7.1 6.4-12.9 12.5-11.6l-.7 3.4zM494.3 287h-1.9c0-1.7.1-3.2.2-4.7-.7-.1-1.5-.2-2.2-.2-4 0-6.2 2-6.2 4.7 0 5 9.3 5.6 9.3 11.8 0 4.5-4 8.5-11.1 8.5-1.8 0-3.2-.1-4.6-.3l1.4-7.5h1.9c0 1.6-.1 3.3-.2 4.7.6.1 1.5.2 2.3.2 4 0 6.9-1.7 6.9-5 0-4.8-9.3-5.3-9.3-12 0-4.3 3.5-7.8 10-7.8 2 0 3.5.2 4.9.4l-1.4 7.2z"/><path class="st29" d="M484.3 181.4c-8.6 0-15.2-6.7-15.2-15.2 0-8.4 6.8-15.2 15.2-15.2 8.6 0 15.2 6.6 15.2 15.2 0 8.2-7 15.2-15.2 15.2zm0-27.2c-6.5 0-11.8 5.3-11.8 11.8 0 6.5 5.3 12.1 11.8 12.1 6.6 0 11.8-5.3 11.8-11.8 0-6.5-5.2-12.1-11.8-12.1zm2.8 20.2l-4.6-7.4h-.2v7.4h-2.9v-16.7h5.1c4 0 5.6 1.7 5.6 4.3 0 2.8-1.7 4.5-4.4 4.8.4.4 1 1.4 1.7 2.3l3.5 5.3h-3.8zm-2.9-14.4h-1.9v5.1h1.2c2.7 0 3.5-1.4 3.5-2.8 0-1.6-.7-2.3-2.8-2.3z"/></svg>
